<?xml version="1.0" encoding="utf-8"?>
<!-- Generator: Adobe Illustrator 28.1.0, SVG Export Plug-In . SVG Version: 6.00 Build 0)  -->
<svg version="1.1" id="Layer_1" xmlns="http://www.w3.org/2000/svg" xmlns:xlink="http://www.w3.org/1999/xlink" x="0px" y="0px"
	 viewBox="0 0 419.2 188.8" style="enable-background:new 0 0 419.2 188.8;" xml:space="preserve">
<style type="text/css">
	.st0{display:none;fill:#232323;}
	.st1{fill:#ED1C24;stroke:#ED1C24;stroke-width:0.1;stroke-miterlimit:10;}
	.st2{display:none;}
	.st3{display:inline;fill:#BF2526;}
	.st4{display:inline;fill:#902426;}
	.st5{display:inline;fill:#232323;}
	.st6{fill:#232323;}
	.st7{fill:#3F4873;}
	.st8{fill:#768EC4;}
</style>
<path class="st0" d="M35.5,115.3l20,0c1.2,0,2.4,0.2,3.5,0.7c1.1,0.4,2.1,1.1,2.9,1.9c0.8,0.8,1.5,1.7,2,2.7c0.5,1,0.7,2.2,0.7,3.4
	c0,1.2-0.2,2.4-0.7,3.4c-0.5,1-1.1,1.9-2,2.7c-0.8,0.8-1.8,1.4-2.9,1.9c-1.1,0.4-2.3,0.7-3.5,0.7H45.3L57.1,153h0l1,1.8l13.4,23.2
	h23.9l-18.9-33.2c3.3-2.4,5.9-5.3,7.8-8.7c1.9-3.5,2.8-7.2,2.8-11.2c0-2.4-0.4-5-1.1-7.6c-0.7-2.7-1.8-5-3.2-7
	c-1.1-1.6-2.5-3.1-4.1-4.7c-1.6-1.5-3.3-2.9-5.2-4.1c-1.9-1.2-3.8-2.2-5.8-2.9c-2-0.7-4-1.1-5.9-1.1l-36.7,0"/>
<path class="st1" d="M24.9,97.3"/>
<path class="st1" d="M71.4,177.9"/>
<g class="st2">
	<path class="st3" d="M36.3,88.9l0,7.9l-22,0l0-45.2L36.3,88.9z"/>
</g>
<g class="st2">
	<path class="st4" d="M36.3,88.9l0,7.9l-22,0l16.7-17L36.3,88.9z"/>
</g>
<g class="st2">
	<path class="st4" d="M47.3,169.9l0,7.9h-22v-2.6l16.6-14.4L47.3,169.9z"/>
</g>
<g class="st2">
	<polygon class="st3" points="42.1,161 25.3,132.6 25.3,177.8 	"/>
</g>
<g class="st2">
	<path class="st5" d="M80.2,45.8c0,6.2-1.2,12-3.6,17.5c-2.4,5.4-5.7,10.2-9.8,14.2c-4.1,4-8.9,7.2-14.4,9.6
		c-5.5,2.3-11.4,3.5-17.6,3.5c-1.6,0-3.1-0.1-4.7-0.3c-1.6-0.2-3.3-0.4-5.1-0.8l4-20.1c1,0.2,1.9,0.3,2.7,0.4
		c0.8,0.1,1.6,0.1,2.3,0.1c3.4,0,6.7-0.7,9.8-2c3.1-1.3,5.8-3.1,8-5.3c2.3-2.2,4.1-4.9,5.4-7.9c1.3-3,2-6.3,2-9.7V9.6h20.8
		L80.2,45.8L80.2,45.8z"/>
	<path class="st5" d="M136.5,90.3l-4.2-11.1h-24.9l-4.2,11.1H80.6l29.8-80.7h19l29.8,80.7H136.5z M120,39l-6.4,21.3h12.8L120,39z"/>
	<path class="st5" d="M198.1,91.7c-5.7,0-11.1-1.1-16.1-3.3c-5-2.2-9.3-5.1-13-8.9c-3.7-3.8-6.6-8.1-8.8-13.1
		c-2.1-5-3.2-10.3-3.2-15.9s1.1-10.9,3.2-15.9c2.1-5,5.1-9.4,8.8-13.1c3.7-3.8,8-6.7,13-8.9c5-2.2,10.3-3.3,16.1-3.3
		c5.2,0,10.2,1,15,2.9s9.3,4.7,13.3,8.3l-16,14c-3.9-2.7-7.9-4.1-12.2-4.1c-2.8,0-5.4,0.5-7.8,1.6c-2.4,1.1-4.5,2.5-6.2,4.4
		c-1.7,1.9-3.1,4-4.1,6.5c-1,2.4-1.5,5-1.5,7.7c0,2.7,0.5,5.3,1.5,7.8c1,2.4,2.4,4.6,4.1,6.4c1.7,1.8,3.8,3.3,6.2,4.4
		c2.4,1.1,5,1.7,7.8,1.7c3.2,0,6.2-0.7,9-2.2c2.8-1.5,5.2-3.5,7.3-6.2l16.5,13.4c-4.1,5.1-9,9-14.7,11.8
		C210.5,90.3,204.5,91.7,198.1,91.7z"/>
	<path class="st5" d="M270.2,91.1c-5.6,0-10.9-1.1-15.9-3.2s-9.2-5-12.9-8.6c-3.7-3.6-6.6-7.9-8.7-12.9c-2.1-4.9-3.2-10.2-3.2-15.8
		c0-5.6,1.1-10.8,3.2-15.8c2.1-4.9,5-9.2,8.7-12.9s8-6.5,12.9-8.7c4.9-2.1,10.2-3.2,15.9-3.2c5.6,0,10.9,1.1,15.8,3.2
		c5,2.1,9.3,5,13,8.7c3.7,3.6,6.6,7.9,8.7,12.9c2.1,4.9,3.2,10.2,3.2,15.8c0,5.6-1.1,10.8-3.2,15.8c-2.1,4.9-5,9.2-8.7,12.9
		c-3.7,3.6-8,6.5-13,8.6C281.1,90.1,275.8,91.1,270.2,91.1z M270.2,29.7c-2.9,0-5.6,0.6-8,1.7s-4.6,2.7-6.4,4.6
		c-1.8,1.9-3.2,4.1-4.2,6.7c-1,2.5-1.5,5.2-1.5,8c0,2.8,0.5,5.4,1.5,8c1,2.6,2.4,4.8,4.2,6.7c1.8,1.9,3.9,3.4,6.4,4.6
		c2.5,1.2,5.1,1.7,8,1.7c2.9,0,5.6-0.6,8-1.7c2.5-1.1,4.6-2.7,6.4-4.6c1.8-1.9,3.2-4.1,4.2-6.7c1-2.6,1.5-5.2,1.5-8
		c0-2.8-0.5-5.5-1.5-8c-1-2.5-2.4-4.7-4.2-6.7c-1.8-1.9-3.9-3.4-6.4-4.6C275.8,30.3,273.1,29.7,270.2,29.7z"/>
	<path class="st5" d="M364.6,91.1h-45.6V10.8h42c1.5,0,3.1,0.2,4.7,0.6c1.6,0.4,3.2,0.9,4.8,1.7c1.6,0.7,3,1.6,4.3,2.5
		c1.3,1,2.5,2,3.5,3.2c1.7,2.1,3.1,4.4,4,6.9c0.9,2.6,1.4,5.2,1.4,7.9c0,3.1-0.6,6.1-1.9,9c-1.2,2.9-3,5.4-5.4,7.5
		c1.5,1,2.9,2.1,4.2,3.5c1.3,1.4,2.4,2.9,3.3,4.6c0.9,1.7,1.6,3.4,2.1,5.2c0.5,1.8,0.8,3.6,0.8,5.3c0,3-0.6,5.9-1.7,8.6
		c-1.1,2.7-2.7,5.1-4.8,7.1c-2,2-4.4,3.7-7.1,4.9C370.6,90.5,367.7,91.1,364.6,91.1z M354.6,26.9h-14.4v16.4h14.4
		c2.2,0,4.1-0.8,5.7-2.4c1.6-1.6,2.4-3.5,2.4-5.7c0-2.2-0.8-4.1-2.4-5.7C358.7,27.7,356.8,26.9,354.6,26.9z M355.3,57.9h-15.1v16.3
		h15.1c2.3,0,4.2-0.8,5.8-2.4c1.6-1.6,2.4-3.5,2.4-5.8c0-2.2-0.8-4.1-2.4-5.7C359.5,58.6,357.6,57.9,355.3,57.9z"/>
</g>
<g class="st2">
	<path class="st5" d="M100,178.2V97.5h64.4v19.2H121v11.5h40.9v19.2H121v11.5h43.4v19.1H100z"/>
	<path class="st5" d="M216.5,178.2h-45.8V97.5H213c1.5,0,3.1,0.2,4.7,0.6c1.6,0.4,3.2,0.9,4.8,1.7s3,1.6,4.4,2.5
		c1.4,1,2.5,2,3.5,3.2c1.7,2.1,3.1,4.4,4,7c0.9,2.6,1.4,5.2,1.4,7.9c0,3.1-0.6,6.1-1.9,9c-1.2,2.9-3.1,5.4-5.4,7.5
		c1.5,1,2.9,2.1,4.2,3.5c1.3,1.4,2.4,2.9,3.3,4.6c0.9,1.7,1.6,3.4,2.1,5.3c0.5,1.8,0.8,3.6,0.8,5.4c0,3.1-0.6,5.9-1.7,8.7
		c-1.1,2.7-2.7,5.1-4.8,7.2s-4.4,3.7-7.1,4.9C222.6,177.6,219.7,178.2,216.5,178.2z M206.5,113.7H192v16.4h14.5
		c2.2,0,4.1-0.8,5.8-2.4c1.6-1.6,2.4-3.6,2.4-5.8s-0.8-4.1-2.4-5.8C210.6,114.5,208.7,113.7,206.5,113.7z M207.2,144.8H192v16.3
		h15.2c2.3,0,4.2-0.8,5.8-2.4c1.6-1.6,2.4-3.5,2.4-5.8c0-2.2-0.8-4.1-2.4-5.7C211.4,145.6,209.5,144.8,207.2,144.8z"/>
	<path class="st5" d="M243,178.2V97.5h64.4v19.2H264v11.5h40.9v19.2H264v11.5h43.4v19.1H243z"/>
	<path class="st5" d="M362.9,178.1l-28-43.1v43.1h-21.5V97.5h21.4l28.1,43.5V97.5h21.6v80.6L362.9,178.1L362.9,178.1z"/>
</g>
<g>
	<g>
		<path class="st6" d="M136.8,90.2h22.7L129.7,9.8h-18.9L81.1,90.2h22.7l3.8-11.6h25.6L136.8,90.2z M113.5,60.3l6.9-21.2l6.9,21.2
			H113.5z"/>
		<path class="st6" d="M25.7,89.4h11.6c24,0,43.4-19.4,43.4-43.4V9.8H59.8V44c0,15.9-14.4,28.1-30.2,25.4l0,0"/>
		<path class="st6" d="M269.6,9.7c-22.6,0-41,18.3-41,41c0,22.6,18.3,41,41,41c22.6,0,41-18.3,41-41C310.5,28.1,292.2,9.7,269.6,9.7
			z M269.6,71c-11.2,0-20.3-9.1-20.3-20.3c0-11.2,9.1-20.3,20.3-20.3c11.3,0,20.3,9.1,20.3,20.3C289.8,61.9,280.8,71,269.6,71z"/>
		<path class="st6" d="M376.4,50.9c4.2-4.2,6.7-10.1,6.7-16.4l0,0c0-13-10.5-23.5-23.5-23.5h-19.9h-21v46.9v33.1h45.5
			c12.2,0,22-9.9,22-22v-0.1C386.3,61.3,382.3,54.7,376.4,50.9z M339.7,27h14.4c4.5,0,8.2,3.7,8.2,8.2l0,0c0,4.5-3.7,8.2-8.2,8.2
			h-14.4V27z M363,66c0,4.5-3.7,8.2-8.2,8.2h-15V57.8h15C359.3,57.8,363,61.5,363,66L363,66z"/>
		<g>
			<path class="st6" d="M95.7,177.5l-18.9-33.7c6.4-4,10.6-11.1,10.6-19.1c0-15.1-12.3-27.4-27.4-27.4H25.8L36,115.2h20.2
				c4.8,0,8.6,3.9,8.6,8.6c0,4.7-3.9,8.6-8.6,8.6H46l26,45.1L95.7,177.5L95.7,177.5z"/>
		</g>
		<g>
			<path class="st6" d="M198.1,71c-11.2,0-20.3-9.1-20.3-20.3c0-11.2,9.1-20.3,20.3-20.3c4.7,0,8.9,1.6,12.4,4.2l15.3-14.1
				c-7.3-6.7-16.9-10.8-27.6-10.8c-22.7,0.1-41.1,18.5-41.1,41.2s18.3,41,41,41c13.3,0,25-6.3,32.6-16l-16.3-12.8
				C210.7,67.8,204.8,71,198.1,71z"/>
			<path d="M230.7,75.6C230.7,75.6,230.7,75.7,230.7,75.6L230.7,75.6L230.7,75.6z"/>
		</g>
	</g>
	<g>
		<g>
			<path class="st7" d="M47.9,169.5v7.9H26v-2.6l16.5-14.4L47.9,169.5z"/>
		</g>
		<g>
			<polygon class="st8" points="42.7,160.7 26,132.4 26,177.4 			"/>
		</g>
	</g>
</g>
<g>
	<path class="st6" d="M101.2,177.5v-80h21.6v80H101.2z"/>
	<path class="st6" d="M187.4,175.8v-2.2c-5.9,3-12.2,4.6-18.8,4.6c-5.7,0-11.1-1.1-16-3.2c-4.9-2.1-9.2-5-12.8-8.7
		c-3.6-3.7-6.5-8-8.5-12.9c-2-4.9-3.1-10.2-3.1-15.9c0-5.5,1-10.8,3.1-15.7c2.1-4.9,5-9.3,8.6-13c3.7-3.7,8-6.7,12.9-8.8
		c4.9-2.1,10.2-3.2,15.9-3.2c6.1,0,11.8,1.3,17.3,3.9c5.4,2.6,10.2,6.3,14.2,11l-16.8,11.2c-2-2-4.3-3.6-6.8-4.7
		c-2.5-1.1-5.1-1.6-7.9-1.6c-2.9,0-5.6,0.6-8.1,1.7c-2.5,1.2-4.6,2.7-6.4,4.6c-1.8,1.9-3.2,4.1-4.3,6.7c-1,2.5-1.5,5.2-1.5,8.1
		c0,2.8,0.5,5.5,1.5,8.1c1,2.6,2.5,4.8,4.3,6.7c1.8,1.9,4,3.4,6.5,4.6c2.5,1.2,5.2,1.7,8.1,1.7c3.1,0,6.1-0.7,8.9-2.1
		c2.8-1.4,5.2-3.3,7.1-5.8h-13.6v-18.5H205v43.4L187.4,175.8L187.4,175.8z"/>
	<path class="st6" d="M323.9,177.7c-5.1,0-10.1-0.6-15.1-1.8c-5-1.2-9.8-2.9-14.3-5c-0.1,0-0.5-0.1-1-0.4c-0.5-0.3-0.8-0.6-0.8-0.7
		c0-0.1,0.1-0.3,0.4-0.8c0.3-0.5,0.6-1,1-1.7c0.4-0.7,0.8-1.5,1.4-2.3c0.5-0.9,1-1.8,1.6-2.7c1.1-1.8,2.1-3.5,3.1-5.2
		c1-1.6,1.7-2.8,2.1-3.5c0.8,0.3,1.7,0.7,2.4,1.2c3.5,1.8,7.1,3.1,10.6,4.1c3.5,0.9,7.3,1.4,11.3,1.4c1.1,0,2.3-0.1,3.6-0.1
		c1.3-0.1,2.4-0.3,3.5-0.7c1-0.4,1.9-1,2.6-1.8c0.7-0.8,1-2,1-3.5c0-0.7-0.2-1.4-0.6-1.9c-0.4-0.6-0.9-1-1.5-1.5
		c-0.6-0.4-1.2-0.8-1.9-1.1c-0.7-0.3-1.3-0.6-1.9-0.8c-1.4-0.5-2.8-0.9-4.2-1.2c-1.4-0.3-2.9-0.6-4.3-0.9c-1.9-0.5-3.7-0.9-5.6-1.3
		c-1.8-0.4-3.6-0.8-5.3-1.4c-1.8-0.5-3.4-1.1-5-1.7c-1.6-0.6-3.1-1.4-4.4-2.2c-2.8-1.7-5-4-6.7-6.8s-2.5-6.6-2.5-11.3
		c0-1.6,0.2-3.3,0.5-4.9c0.4-1.7,0.9-3.2,1.6-4.8c1.4-3,3.3-5.5,5.6-7.4c2.3-2,4.8-3.5,7.6-4.6c2.8-1.1,5.7-1.9,8.7-2.4
		c3.1-0.5,6.1-0.7,9.2-0.7c5,0,10,0.6,14.9,1.8c4.9,1.2,9.5,3.2,14,5.9c-1.6,2.8-3.2,5.5-4.7,8.1c-1.5,2.6-3.1,5.3-4.6,8.1
		c-3.8-1.8-7.4-3.3-11-4.5c-3.6-1.2-7.4-1.8-11.5-1.8c-1,0-2,0.1-3.1,0.1c-1.1,0.1-2.1,0.3-3,0.7c-0.9,0.4-1.7,1-2.2,1.7
		c-0.6,0.7-0.9,1.7-0.9,3c0,0.9,0.2,1.7,0.6,2.3c0.5,0.7,1.3,1.3,2.5,1.9c1.2,0.6,2.7,1.1,4.4,1.5c1.8,0.5,3.7,0.9,5.8,1.3
		c2.1,0.4,4.3,0.9,6.5,1.5c2.2,0.6,4.4,1.3,6.7,2c2.2,0.7,4.4,1.7,6.4,2.7c2,1.1,3.8,2.3,5.3,3.8c1.6,1.5,2.8,3.2,3.7,5.2
		c0.7,1.5,1.2,3.1,1.5,4.8c0.3,1.7,0.4,3.4,0.4,5.1c0,4.9-1,9-3,12.2c-2,3.2-4.7,5.7-7.9,7.6c-3.3,1.9-6.9,3.2-11,3.9
		C332.1,177.3,328,177.7,323.9,177.7z"/>
</g>
<path class="st6" d="M269.4,175.8v-2.2c-5.9,3-12.2,4.6-18.8,4.6c-5.7,0-11.1-1.1-16-3.2c-4.9-2.1-9.2-5-12.8-8.7
	c-3.6-3.7-6.5-8-8.5-12.9c-2-4.9-3.1-10.2-3.1-15.9c0-5.5,1-10.8,3.1-15.7c2.1-4.9,5-9.3,8.6-13c3.7-3.7,8-6.7,12.9-8.8
	c4.9-2.1,10.2-3.2,15.9-3.2c6.1,0,11.8,1.3,17.3,3.9c5.4,2.6,10.2,6.3,14.2,11l-16.8,11.2c-2-2-4.3-3.6-6.8-4.7
	c-2.5-1.1-5.1-1.6-7.9-1.6c-2.9,0-5.6,0.6-8.1,1.7c-2.5,1.2-4.6,2.7-6.4,4.6c-1.8,1.9-3.2,4.1-4.3,6.7c-1,2.5-1.5,5.2-1.5,8.1
	c0,2.8,0.5,5.5,1.5,8.1c1,2.6,2.5,4.8,4.3,6.7c1.8,1.9,4,3.4,6.5,4.6c2.5,1.2,5.2,1.7,8.1,1.7c3.1,0,6.1-0.7,8.9-2.1
	c2.8-1.4,5.2-3.3,7.1-5.8h-13.6v-18.5h33.8v43.4L269.4,175.8L269.4,175.8z"/>
</svg>
